<svg xmlns="http://www.w3.org/2000/svg" width="1920" height="1080" viewBox="0 0 1920 1080">
  <defs>
    <linearGradient id="grad1" x1="0%" y1="0%" x2="100%" y2="100%">
      <stop offset="0%" style="stop-color:#fff8e1;stop-opacity:1" />
      <stop offset="100%" style="stop-color:#ffcc80;stop-opacity:0.8" />
    </linearGradient>
    <pattern id="pattern1" width="80" height="80" patternUnits="userSpaceOnUse">
      <path d="M20,20 L60,20 L60,60 L20,60 Z" stroke="#ffe0b2" stroke-width="2" fill="none" stroke-opacity="0.4" />
    </pattern>
  </defs>
  <rect width="100%" height="100%" fill="url(#grad1)" />
  <rect width="100%" height="100%" fill="url(#pattern1)" />
  <g fill="#ffffff" fill-opacity="0.2">
    <path d="M100,100 Q150,50 200,100 T300,100 T400,100 T500,100" stroke="#ffcc80" stroke-width="3" fill="none" />
    <path d="M700,150 Q750,100 800,150 T900,150 T1000,150 T1100,150" stroke="#ffcc80" stroke-width="3" fill="none" />
    <path d="M1300,120 Q1350,70 1400,120 T1500,120 T1600,120 T1700,120" stroke="#ffcc80" stroke-width="3" fill="none" />
  </g>
  <g fill="#ffffff" fill-opacity="0.15">
    <circle cx="150" cy="300" r="10" />
    <circle cx="350" cy="250" r="8" />
    <circle cx="550" cy="320" r="12" />
    <circle cx="750" cy="280" r="9" />
    <circle cx="950" cy="310" r="11" />
    <circle cx="1150" cy="270" r="10" />
    <circle cx="1350" cy="330" r="8" />
    <circle cx="1550" cy="290" r="12" />
    <circle cx="1750" cy="320" r="9" />
  </g>
  <path d="M0,1080 C300,1020 600,1050 900,1000 C1200,950 1500,1030 1920,980 L1920,1080 L0,1080 Z" fill="#ffffff" fill-opacity="0.3" />
</svg>