<svg xmlns="http://www.w3.org/2000/svg" width="1920" height="1080" viewBox="0 0 1920 1080">
  <defs>
    <linearGradient id="grad1" x1="0%" y1="0%" x2="100%" y2="100%">
      <stop offset="0%" style="stop-color:#f3e5f5;stop-opacity:1" />
      <stop offset="100%" style="stop-color:#ce93d8;stop-opacity:0.8" />
    </linearGradient>
    <pattern id="pattern1" width="60" height="60" patternUnits="userSpaceOnUse">
      <path d="M30,10 L30,50 M10,30 L50,30" stroke="#e1bee7" stroke-width="2" stroke-opacity="0.3" />
    </pattern>
  </defs>
  <rect width="100%" height="100%" fill="url(#grad1)" />
  <rect width="100%" height="100%" fill="url(#pattern1)" />
  <g fill="#ffffff" fill-opacity="0.2">
    <path d="M100,200 L150,200 L150,150 L200,150 L200,200 L250,200" stroke="#d1c4e9" stroke-width="3" fill="none" />
    <path d="M400,250 L450,250 L450,200 L500,200 L500,250 L550,250" stroke="#d1c4e9" stroke-width="3" fill="none" />
    <path d="M700,180 L750,180 L750,130 L800,130 L800,180 L850,180" stroke="#d1c4e9" stroke-width="3" fill="none" />
    <path d="M1000,220 L1050,220 L1050,170 L1100,170 L1100,220 L1150,220" stroke="#d1c4e9" stroke-width="3" fill="none" />
    <path d="M1300,190 L1350,190 L1350,140 L1400,140 L1400,190 L1450,190" stroke="#d1c4e9" stroke-width="3" fill="none" />
    <path d="M1600,230 L1650,230 L1650,180 L1700,180 L1700,230 L1750,230" stroke="#d1c4e9" stroke-width="3" fill="none" />
  </g>
  <path d="M0,1080 C400,1030 800,980 1200,1020 C1600,1050 1920,980 1920,1080 L0,1080 Z" fill="#ffffff" fill-opacity="0.25" />
</svg>